<svg width="391" height="124" viewBox="0 0 391 124" xmlns="http://www.w3.org/2000/svg"><title>Algolia_logo_bg-white</title><g fill="none" fill-rule="evenodd"><path d="M235.603 47.018L229.908 67.2l18.342-10.052a20.995 20.995 0 0 0-12.647-10.129zM203.456 33.4a6.267 6.267 0 0 0-8.887 0l-1.11 1.116c-2.454 2.462-2.452 6.46 0 8.924l1.182 1.187a41.248 41.248 0 0 1 9.45-10.588l-.635-.639zM241.84 27.224c.01-.136.04-.265.04-.404v-3.155c-.001-3.484-2.813-6.31-6.282-6.31H224.6c-3.468 0-6.28 2.825-6.28 6.31v3.1a40.542 40.542 0 0 1 23.52.459" fill="#46AEDA"/><path d="M229.76 41.553c13.785 0 25 11.215 25 25 0 13.784-11.215 25-25 25-13.784 0-25-11.216-25-25 0-13.785 11.216-25 25-25m-35 25c0 19.328 15.668 35 35 35 19.333 0 35-15.672 35-35s-15.667-35-35-35c-19.332 0-35 15.672-35 35z" fill="#46AEDA"/><path d="M69.583 99.656a410.686 410.686 0 0 1-4.071-11.31 1309.194 1309.194 0 0 0-3.944-11.31H21.62l-8.015 22.62H.755a2886.602 2886.602 0 0 1 9.542-26.005 1123.733 1123.733 0 0 1 8.716-22.682 794.435 794.435 0 0 1 8.46-20.511 529.435 529.435 0 0 1 8.778-19.36h11.322a529.435 529.435 0 0 1 8.779 19.36 805.651 805.651 0 0 1 8.46 20.51c2.84 7.155 5.745 14.717 8.715 22.683 2.968 7.967 6.149 16.634 9.542 26.005H69.583zM58.006 66.815a1445.738 1445.738 0 0 0-8.078-21.534 386.16 386.16 0 0 0-8.334-20 319.903 319.903 0 0 0-8.46 20 862.633 862.633 0 0 0-7.952 21.534h32.824zM114.11 100.933c-7.295-.17-12.467-1.745-15.52-4.728-3.055-2.98-4.579-7.624-4.579-13.93V2.536L105.84.491v79.868c0 1.962.171 3.58.509 4.857.34 1.277.892 2.3 1.654 3.067.763.765 1.782 1.341 3.055 1.725 1.273.383 2.84.703 4.705.959l-1.654 9.966M170.469 93.01c-1.016.685-2.989 1.555-5.915 2.62-2.926 1.065-6.34 1.598-10.242 1.598-3.987 0-7.74-.64-11.259-1.916a24.452 24.452 0 0 1-9.224-5.943c-2.63-2.685-4.707-6.027-6.234-10.031-1.525-4.004-2.29-8.775-2.29-14.312 0-4.856.72-9.308 2.163-13.355 1.442-4.045 3.54-7.54 6.298-10.479 2.755-2.939 6.126-5.24 10.113-6.9 3.987-1.662 8.482-2.493 13.486-2.493 5.513 0 10.325.407 14.44 1.215 4.114.81 7.57 1.555 10.368 2.235v59.296c0 10.223-2.627 17.633-7.886 22.234-5.261 4.6-13.233 6.899-23.92 6.899-4.155 0-8.077-.338-11.767-1.02-3.689-.684-6.892-1.49-9.604-2.428l2.163-10.35c2.373.934 5.279 1.767 8.714 2.49 3.435.723 7.017 1.088 10.75 1.088 7.039 0 12.106-1.406 15.203-4.219 3.096-2.81 4.643-7.284 4.643-13.418V93.01zm-4.897-50.284c-1.995-.297-4.687-.448-8.078-.448-6.361 0-11.26 2.09-14.695 6.263-3.435 4.174-5.152 9.71-5.152 16.61 0 3.836.485 7.116 1.462 9.842.976 2.728 2.29 4.982 3.944 6.773 1.654 1.787 3.562 3.11 5.725 3.96a18.044 18.044 0 0 0 6.68 1.278c3.137 0 6.02-.447 8.65-1.341 2.628-.896 4.707-1.938 6.234-3.13V43.685c-1.19-.34-2.777-.66-4.77-.96zM297.035 100.934c-7.296-.172-12.468-1.745-15.521-4.728-3.053-2.98-4.58-7.625-4.58-13.929V2.537L288.767.492V80.36c0 1.962.168 3.58.508 4.857.339 1.278.89 2.3 1.655 3.067.762.767 1.778 1.343 3.052 1.726 1.272.384 2.84.702 4.707.958l-1.654 9.967M317.77 21.194c-2.118 0-3.923-.704-5.404-2.108-1.486-1.407-2.227-3.3-2.227-5.687 0-2.385.741-4.282 2.227-5.686 1.481-1.407 3.286-2.11 5.405-2.11 2.12 0 3.923.703 5.41 2.11 1.48 1.404 2.225 3.3 2.225 5.686 0 2.387-.745 4.28-2.226 5.687-1.486 1.404-3.289 2.108-5.41 2.108zm-5.85 12.012h11.832v66.45H311.92v-66.45zM365.48 31.545c4.749 0 8.756.62 12.023 1.854 3.263 1.235 5.893 2.981 7.886 5.237 1.993 2.26 3.414 4.943 4.263 8.053.846 3.11 1.272 6.537 1.272 10.286v41.533c-1.018.17-2.44.404-4.261.702-1.825.298-3.881.574-6.171.83-2.29.255-4.772.489-7.442.702-2.673.211-5.325.32-7.952.32-3.734 0-7.167-.383-10.305-1.15-3.139-.767-5.853-1.981-8.143-3.641-2.29-1.661-4.07-3.854-5.343-6.582-1.272-2.726-1.908-6.006-1.908-9.84 0-3.662.741-6.815 2.227-9.456a17.765 17.765 0 0 1 6.042-6.39c2.545-1.617 5.513-2.811 8.906-3.578 3.39-.766 6.953-1.15 10.686-1.15 1.186 0 2.418.063 3.69.191 1.272.128 2.482.301 3.625.513 1.145.213 2.142.404 2.992.574.847.172 1.44.3 1.78.383v-3.322c0-1.96-.212-3.897-.637-5.815-.425-1.917-1.188-3.62-2.29-5.11-1.102-1.491-2.608-2.684-4.517-3.58-1.908-.893-4.39-1.34-7.441-1.34-3.904 0-7.315.277-10.243.83-2.924.554-5.109 1.13-6.55 1.725l-1.4-9.84c1.526-.68 4.072-1.34 7.633-1.98 3.562-.64 7.421-.96 11.577-.96zm1.017 59.55c2.799 0 5.28-.065 7.443-.193 2.163-.128 3.965-.36 5.407-.702V70.393c-.85-.425-2.228-.787-4.134-1.086-1.91-.298-4.22-.45-6.935-.45-1.78 0-3.669.13-5.66.386-1.994.255-3.819.789-5.471 1.596-1.655.811-3.034 1.917-4.135 3.324-1.103 1.404-1.654 3.258-1.654 5.558 0 4.26 1.355 7.22 4.07 8.88 2.715 1.664 6.404 2.494 11.07 2.494z" fill="#0C1724"/></g></svg>