<svg xmlns="http://www.w3.org/2000/svg" width="221.827" height="71.304" viewBox="0 0 221.827 71.304"><path d="M86.45 37.576c7.75-1.665 6.692-10.937 6.465-12.962-.382-3.125-4.055-8.582-9.039-8.146-6.275.559-7.191 9.623-7.191 9.623-.85 4.197 2.028 13.155 9.765 11.485m14.392-15.543c4.278 0 7.736-4.93 7.736-11.021 0-6.09-3.458-11.012-7.736-11.012-4.28 0-7.747 4.922-7.747 11.013 0 6.09 3.467 11.02 7.747 11.02m18.444.725c5.726.75 9.396-5.359 10.13-9.988.75-4.623-2.949-10-6.995-10.923-4.063-.934-9.135 5.57-9.592 9.813-.558 5.191.737 10.365 6.457 11.098m22.679 7.777c0-2.214-1.833-8.888-8.66-8.888-6.839 0-7.744 6.298-7.744 10.748 0 4.248.354 10.171 8.848 9.987 8.486-.188 7.556-9.617 7.556-11.847m-8.66 19.435s-8.852-6.846-14.019-14.251c-7.015-10.918-16.97-6.471-20.298-.927-3.318 5.558-8.476 9.068-9.214 10-.745.912-10.692 6.287-8.485 16.101 2.212 9.808 9.969 9.622 9.969 9.622s5.717.559 12.347-.924c6.644-1.479 12.36.363 12.36.363s15.498 5.197 19.732-4.803c4.242-9.991-2.392-15.181-2.392-15.181" fill="#226cb4"/><path d="M102.217 40.425v6.588h-5.368s-5.365.445-7.243 6.525c-.655 4.06.578 6.451.793 6.963.217.51 1.951 3.479 6.305 4.35h10.073V40.496l-4.56-.071zm-.081 20.429h-4.058s-2.827-.147-3.688-3.401c-.444-1.443.066-3.109.29-3.764.205-.656 1.154-2.172 3.111-2.755h4.344l.001 9.92zm7.11-13.25v12.823s.21 3.193 4.71 4.355h11.592V47.604h-5.003v12.897h-4.775s-1.526-.221-1.812-1.449V47.528l-4.712.076z" fill="#fff"/><path d="M180.779 39.185v-5.407h-35.612l-.046 5.486h15.309l-1.435 3.28h-13.019v27.131h30.928c3.234 0 2.947-3.266 2.947-3.266V42.544h-13.039l1.146-3.359h12.821zm-6.916 24.695s-.375.902-.905.902h-20.524v-6.328h21.43v5.426h-.001zm-.035-10.651h-21.396v-5.933h21.396v5.933zm47.643-19.307h-13.972v-2.737h-6.554v2.602h-16.027v35.832h5.766V38.41h30.787v-4.488zm-3.768 7.415v-2.073h-5.633v2.073h-11.588v-2h-5.336v2h-3.606l.071 4.058h3.535v7.623h19.492c2.705 0 3.063-2.853 3.063-2.853v-4.771h4.125v-4.059h-4.124v.002zm-5.633 6.83s-.502.924-1.145.924H200.42v-3.775h11.65v2.851zm-19.743 10.409l8.972 5.203c-.71.782-3.775 1.773-3.775 1.773h-5.982v4h8.122c2.424-.496 6.909-2.776 6.909-2.776 1.857 1.705 5.426 2.415 5.426 2.415h9.258v-3.99h-6.979c-1.881-.281-3.57-1.353-3.57-1.353l10.55-6.058v-3.281H192.33v4.066h-.003zm18.67-.067l-5.132 2.705-4.704-2.705h9.836zM65.929 39.626h7.773v-6.847h-7.773v6.847zm0 29.848h7.773V42.61h-7.773v26.864zM53.29 42.634l-16.584-.043v5.646h14.542s3.461.854 3.461 3.051v1.988H41.55s-5.175.477-6.837 6.66c-.286 2.895.095 4.316.29 4.846.187.523 1.703 3.936 6.216 4.791h20.953V50.33s-.998-6.602-8.882-7.696m1.419 21.621h-10.59c-1.423-.574-1.897-1.522-1.997-1.76-.098-.234-.428-1.084-.044-1.945.857-1.659 2.277-2.041 2.277-2.041h10.354v5.746zM33.004 60.05c.229-6.541-5.639-8.801-5.639-8.801 4.967-2.599 4.336-9.146 4.336-9.146-.538-10.021-12.782-9.554-12.782-9.554H0v37.347h21.362c12.545-.049 11.642-9.846 11.642-9.846m-12.071 2.905v.016H8.136v-8.057H20.87l.431.086s2.423.443 3.301 2.623c0 0 .508 2.047-.589 3.568 0 0-.807 1.408-3.08 1.764m2.713-17.316s-.86 1.581-3.142 1.921H8.136v-7.729h12.315s2.676-.125 3.562 2.002c0 0 .532 2.258-.367 3.806" fill="#cc2229"/></svg>